<svg xmlns="http://www.w3.org/2000/svg" width="1920" height="900" viewBox="0 0 1920 900" version="1.1"><path d="" stroke="none" fill="#086cb4" fill-rule="evenodd"/><path d="M 388.416 221.144 C 345.126 223.658, 317.886 250.797, 304.500 304.750 C 300.913 319.206, 288.855 394.967, 286.869 415.525 C 285.997 424.551, 285.991 429.165, 286.844 434.025 C 290.132 452.754, 303.460 465.527, 326.644 472.167 C 334.446 474.402, 335.096 474.421, 421 474.962 C 468.673 475.262, 508.398 475.910, 509.500 476.405 C 513.799 478.337, 515 480.208, 515 484.973 C 515 491.134, 496.378 583.354, 494.095 588.500 C 491.683 593.937, 485.221 599.513, 478.810 601.691 C 473.846 603.377, 465.811 603.527, 355.517 603.997 L 237.534 604.500 228.928 641 C 224.195 661.075, 220.628 677.856, 221.002 678.291 C 221.376 678.726, 281.941 678.912, 355.591 678.703 C 499.774 678.296, 494.741 678.473, 515 673.091 C 545.757 664.920, 569.107 645.603, 578.802 620.309 C 583.865 607.102, 594.913 560.308, 605.672 506.500 C 611.032 479.697, 611.470 476.477, 611.457 464 C 611.442 448.833, 610.252 443.445, 604.295 431.560 C 599.117 421.229, 587.251 409.787, 576 404.275 C 571.325 401.985, 563.900 399.104, 559.500 397.872 C 551.607 395.663, 550.431 395.625, 471.500 395.066 C 392.782 394.509, 391.436 394.466, 387.505 392.405 C 384.673 390.919, 383.093 389.211, 382.074 386.535 C 380.462 382.299, 381.289 376.227, 389.160 334.500 C 393.478 311.612, 395.949 304.597, 400.944 301.040 C 408.994 295.308, 404.207 295.542, 519.633 295.228 L 625.766 294.939 634.918 258.338 C 639.952 238.208, 643.910 221.577, 643.714 221.380 C 643.053 220.719, 399.612 220.493, 388.416 221.144 M 850.183 224.250 C 846.880 229.669, 592 678.241, 592 678.634 C 592 678.836, 614.388 679, 641.750 678.999 L 691.500 678.999 717.500 633.536 L 743.500 588.073 814.631 588.037 L 885.763 588 886.821 583.750 C 889.803 571.776, 901 521.848, 901 520.528 C 901 519.174, 894.140 519, 840.917 519 C 802.961 519, 780.956 518.646, 781.167 518.040 C 781.350 517.512, 804.225 479.134, 832 432.757 C 864.907 377.810, 882.614 349.142, 882.826 350.467 C 883.005 351.585, 891.330 425.850, 901.326 515.500 L 919.500 678.500 965.750 678.760 C 1004.625 678.979, 1012 678.799, 1012 677.634 C 1012 676.872, 999.400 574.461, 984 450.054 C 968.600 325.646, 956 223.215, 956 222.429 C 956 221.209, 948.423 221, 904.082 221 L 852.163 221 850.183 224.250 M 1102.195 448.758 C 1075.077 574.016, 1052.915 677.063, 1052.945 677.750 C 1052.988 678.733, 1064.183 679, 1105.433 679 C 1154.496 679, 1157.900 678.888, 1158.407 677.250 C 1158.704 676.288, 1180.361 574.925, 1206.532 452 C 1232.703 329.075, 1254.491 226.813, 1254.951 224.750 L 1255.787 221 1203.644 221.008 L 1151.500 221.017 1102.195 448.758 M 1406.500 221.707 C 1385.847 224.510, 1367.080 233.767, 1353.940 247.633 C 1336.891 265.623, 1327.529 288.419, 1320.521 329 C 1317.526 346.338, 1306.711 396.992, 1283.369 503 L 1267.625 574.500 1267.644 590.500 C 1267.666 609.373, 1269.326 617.125, 1276.424 631.500 C 1286.359 651.620, 1302.511 665.238, 1325.500 672.880 C 1343.898 678.995, 1344.016 679, 1472.378 679 C 1536.520 679, 1589.001 678.663, 1589.002 678.250 C 1589.002 677.837, 1592.602 661.772, 1597.002 642.549 C 1601.401 623.326, 1605 606.788, 1605 605.799 C 1605 604.078, 1600.363 604, 1498.549 604 C 1427.314 604, 1390.463 603.649, 1387.154 602.940 C 1378.942 601.178, 1371.962 596.335, 1368.500 589.994 C 1365.607 584.696, 1365.502 584.055, 1365.559 572 C 1365.614 560.413, 1366.432 555.190, 1376.751 500.500 C 1382.873 468.050, 1390.850 425.153, 1394.477 405.174 C 1402.359 361.757, 1409.374 326.950, 1411.578 320.323 C 1416.072 306.814, 1424.632 298.914, 1437.799 296.123 C 1441.522 295.334, 1473.559 295, 1545.511 295 L 1647.923 295 1648.913 291.250 C 1652.152 278.979, 1666 222.875, 1666 222.023 C 1666 221.040, 1413.683 220.732, 1406.500 221.707 M 1651.500 608.338 C 1640.617 611.964, 1632.244 618.843, 1627.925 627.708 C 1624.816 634.089, 1624.061 647.694, 1626.427 654.698 C 1634.658 679.058, 1668.393 687.095, 1688.012 669.370 C 1693.388 664.513, 1696.396 659.772, 1698.416 652.972 C 1703.524 635.772, 1695.121 617.981, 1678.240 610.252 C 1671.540 607.185, 1657.891 606.208, 1651.500 608.338 M 1652.703 615.442 C 1643.474 618.734, 1636.345 626.319, 1633.864 635.485 C 1631.367 644.709, 1634.960 657.922, 1641.657 664.140 C 1652.789 674.476, 1671.145 674.557, 1682.092 664.317 C 1694.664 652.557, 1694.516 632.942, 1681.767 621.480 C 1674.082 614.571, 1662.115 612.085, 1652.703 615.442 M 1648 643 L 1648 664 1651.500 664 L 1655 664 1655 655 L 1655 646 1658.250 646.002 C 1661.268 646.004, 1661.893 646.647, 1667 655 L 1672.500 663.996 1676.809 663.998 C 1679.982 664, 1680.924 663.671, 1680.382 662.750 C 1679.977 662.063, 1677.437 658.201, 1674.738 654.169 C 1672.038 650.136, 1670.057 646.610, 1670.336 646.331 C 1670.614 646.053, 1672.329 645.077, 1674.146 644.162 C 1680.461 640.986, 1681.717 630.989, 1676.462 625.734 C 1673.345 622.618, 1670.269 622, 1657.875 622 L 1648 622 1648 643 M 1655 633.866 L 1655 640 1661.277 640 C 1668.373 640, 1672 638.185, 1672 634.634 C 1672 630.191, 1669.851 628.794, 1662.175 628.245 L 1655 627.731 1655 633.866" stroke="none" fill="#046cb4" fill-rule="evenodd"/></svg>