<?xml version="1.0" standalone="no"?>
<!DOCTYPE svg PUBLIC "-//W3C//DTD SVG 20010904//EN"
 "http://www.w3.org/TR/2001/REC-SVG-20010904/DTD/svg10.dtd">
<svg version="1.0" xmlns="http://www.w3.org/2000/svg"
 width="1920.000000pt" height="900.000000pt" viewBox="0 0 1920.000000 900.000000"
 preserveAspectRatio="xMidYMid meet">

<g transform="translate(0.000000,900.000000) scale(0.100000,-0.100000)"
fill="#000000" stroke="none">
<path d="M3831 6779 c-351 -41 -576 -239 -724 -639 -53 -144 -81 -279 -147
-702 -92 -595 -103 -705 -79 -807 28 -125 124 -237 253 -297 153 -70 108 -67
1066 -73 778 -5 869 -8 902 -23 41 -18 58 -43 58 -85 0 -53 -186 -976 -209
-1035 -17 -44 -78 -104 -129 -126 -27 -12 -77 -26 -113 -31 -42 -7 -457 -11
-1195 -11 l-1132 0 -10 -42 c-6 -24 -43 -180 -82 -348 -39 -168 -73 -313 -76
-323 -5 -17 52 -18 1353 -14 1233 3 1366 5 1443 21 265 53 458 144 594 281
155 155 202 282 350 952 147 665 177 887 142 1045 -56 254 -252 435 -540 501
-87 20 -121 21 -851 23 -418 2 -775 6 -793 9 -44 8 -98 57 -106 96 -11 58 108
700 144 774 26 53 76 91 153 114 45 13 188 16 1101 21 l1050 5 88 350 c48 193
88 356 88 363 0 9 -258 12 -1262 11 -695 -1 -1296 -5 -1337 -10z"/>
<path d="M11517 6763 c-21 -103 -979 -4512 -983 -4525 -5 -17 24 -18 519 -18
l524 0 11 53 c7 28 223 1047 482 2262 258 1216 472 2220 475 2233 l5 22 -514
0 -513 0 -6 -27z"/>
<path d="M14120 6780 c-368 -28 -629 -225 -783 -590 -47 -112 -89 -275 -127
-490 -33 -186 -104 -522 -354 -1665 -85 -390 -160 -741 -167 -779 -7 -42 -10
-121 -6 -205 7 -198 50 -332 152 -476 131 -185 359 -309 630 -344 65 -9 408
-11 1254 -9 l1164 3 77 335 c42 184 80 347 83 363 l7 27 -1055 0 c-924 0
-1065 2 -1125 16 -166 38 -241 153 -227 347 4 43 58 356 121 695 63 339 140
757 171 927 67 370 148 781 169 850 36 119 121 212 230 251 48 18 105 19 1098
22 l1046 3 46 192 c26 105 66 270 90 365 l44 172 -1222 -1 c-671 -1 -1264 -5
-1316 -9z"/>
<path d="M8517 6773 c-3 -5 -575 -1011 -1272 -2238 -697 -1227 -1279 -2249
-1292 -2272 l-25 -43 494 0 493 1 256 447 256 447 713 5 713 5 77 335 77 335
-605 3 c-560 2 -604 3 -598 19 4 9 235 398 514 864 367 614 509 843 514 831 4
-9 86 -735 183 -1612 96 -877 178 -1614 181 -1638 l6 -42 454 0 c448 0 454 0
454 20 0 21 -545 4435 -556 4503 l-6 37 -513 0 c-283 0 -516 -3 -518 -7z"/>
<path d="M16493 2902 c-101 -36 -167 -96 -212 -192 -21 -45 -26 -70 -26 -140
0 -76 3 -92 33 -152 38 -77 92 -130 171 -167 50 -23 68 -26 166 -26 99 0 115
3 165 27 72 35 137 100 169 168 36 78 41 193 11 272 -28 76 -97 151 -174 190
-53 28 -73 32 -156 35 -74 3 -107 -1 -147 -15z m262 -67 c182 -89 223 -326 81
-471 -128 -129 -336 -122 -446 17 -50 63 -65 108 -64 194 0 85 25 146 81 202
93 93 230 116 348 58z"/>
<path d="M16480 2570 l0 -200 30 0 30 0 0 86 0 85 42 -3 c41 -3 44 -5 93 -85
46 -76 53 -82 83 -83 17 0 32 2 32 5 0 3 -22 39 -50 80 -27 41 -50 78 -50 82
0 4 18 16 40 25 58 24 78 94 46 157 -22 42 -55 51 -181 51 l-115 0 0 -200z
m230 130 c25 -25 25 -51 1 -81 -16 -20 -27 -23 -92 -23 l-74 -1 -3 63 -3 62
76 0 c62 0 79 -4 95 -20z"/>
</g>
</svg>
