<svg version="1.1" id="Layer_1" xmlns="http://www.w3.org/2000/svg" xmlns:xlink="http://www.w3.org/1999/xlink" x="0px" y="0px"
	 width="100%" viewBox="0 0 397 397" enable-background="new 0 0 397 397" xml:space="preserve">
<path fill="#FDFCFB" opacity="1.000000" stroke="none" 
	d="
M183.000000,0.999999 
	C195.354233,1.000000 207.708450,1.000000 220.784851,1.317579 
	C245.183838,4.188219 267.981903,10.101145 289.241730,20.884926 
	C341.844330,47.566956 376.805603,89.133354 393.436890,145.884079 
	C395.006989,151.241684 396.481262,156.627350 398.000000,162.000000 
	C398.000000,186.354233 398.000000,210.708450 397.707886,235.776886 
	C396.439484,240.864151 395.595825,245.271729 394.467316,249.605118 
	C374.242676,327.266144 308.162140,385.734222 229.005615,396.106964 
	C225.973129,396.504364 223.000519,397.358643 220.000000,398.000000 
	C208.312439,398.000000 196.624878,398.000000 184.234650,397.670044 
	C177.461853,396.402283 171.350037,395.676605 165.328217,394.492981 
	C118.659767,385.320160 79.775436,362.670868 49.533459,325.980042 
	C11.357818,279.663788 -2.729020,226.234146 6.468097,167.228302 
	C13.605395,121.437607 35.169952,82.846428 69.728622,51.731262 
	C96.180862,27.914793 126.855072,12.376274 161.680679,5.065267 
	C168.759613,3.579170 175.892166,2.348447 183.000000,0.999999 
M259.263702,377.841583 
	C268.792267,373.885529 278.628845,370.533722 287.792999,365.862762 
	C318.173798,350.377716 342.301147,327.882202 360.609589,299.120483 
	C363.496460,294.585358 364.607361,289.843140 361.913452,284.972504 
	C359.138580,279.955597 354.305054,277.687775 348.875183,278.300293 
	C344.384888,278.806793 339.789642,280.210175 335.735809,282.216187 
	C332.082458,284.024048 329.110596,287.201935 325.819733,289.751801 
	C323.473999,291.569366 321.097717,293.347504 318.735077,295.143250 
	C320.558441,290.761414 323.369324,287.369537 325.719727,283.684021 
	C331.064148,275.303650 326.717010,265.989197 316.807007,265.799652 
	C312.154999,265.710693 307.152130,267.827820 302.860138,270.023804 
	C299.257782,271.866943 296.494781,275.322021 293.278351,277.963745 
	C292.187775,278.859467 290.847168,279.450714 289.620819,280.181091 
	C291.653687,276.120758 294.263519,272.867249 296.515717,269.382599 
	C300.045288,263.921600 298.382111,257.745148 292.138153,256.204010 
	C287.957367,255.172089 282.998627,255.918991 278.723785,257.092804 
	C275.532410,257.969055 272.908966,260.848480 269.973572,262.744415 
	C267.927826,264.065735 265.782074,265.232239 264.788605,265.816498 
	C264.272369,262.180237 264.737183,258.318634 263.123108,255.777557 
	C260.772339,252.076675 256.172577,251.848175 252.234451,253.342621 
	C248.861603,254.622559 245.610580,256.521271 242.706177,258.684113 
	C232.552048,266.245697 222.568283,274.036194 212.530487,281.753601 
	C211.702881,282.389893 210.955673,283.130768 209.465500,284.445679 
	C214.104233,285.817261 217.959656,286.750549 221.667511,288.091736 
	C233.522583,292.380005 246.211136,295.295013 256.942474,301.547302 
	C274.345520,311.686646 274.876099,333.748383 259.407104,346.150879 
	C252.250214,351.888977 243.725967,353.510986 235.293106,351.309052 
	C222.298386,347.915985 209.534119,343.526672 196.874268,338.995148 
	C182.939301,334.007172 169.234512,328.376495 155.424438,323.038727 
	C154.182236,322.558594 152.692719,322.446167 151.693909,321.675720 
	C150.383209,320.664612 149.445923,319.169403 148.348053,317.882416 
	C149.862778,317.145386 151.505676,315.597046 152.869888,315.812592 
	C158.596909,316.717468 164.486160,317.495697 169.867477,319.515350 
	C184.521881,325.015320 198.891937,331.267883 213.485718,336.936279 
	C223.129257,340.681915 232.965393,343.922424 243.578018,343.260681 
	C250.822357,342.808960 256.241760,339.536896 259.545746,332.977722 
	C264.158966,323.819489 262.201752,315.583191 253.519150,308.706573 
	C244.265579,301.377686 233.291336,297.608826 221.983536,295.484436 
	C208.346481,292.922485 196.586624,286.911957 185.251404,279.308136 
	C176.141434,273.197021 166.913620,267.038147 157.066742,262.293884 
	C134.164032,251.259216 110.345619,248.488419 86.520958,259.161774 
	C73.329231,265.071625 60.691200,272.265869 48.028423,279.286682 
	C42.057678,282.597107 40.172653,287.936890 42.650219,294.274353 
	C44.626549,299.329620 47.290554,304.272583 50.462170,308.680542 
	C97.885254,374.590210 180.520157,402.096802 259.263702,377.841583 
M260.515442,21.913492 
	C234.481567,13.284980 207.777252,10.657417 180.628937,13.963122 
	C130.520691,20.064533 89.136368,42.736267 57.332485,81.818504 
	C25.028030,121.515862 11.632499,167.371124 16.186424,218.359192 
	C17.630081,234.523117 21.450174,250.189331 27.087034,265.426422 
	C28.542110,269.359650 30.597462,270.160339 34.291916,268.321381 
	C39.806664,265.576385 45.461594,263.113800 51.045265,260.506195 
	C57.221012,257.622101 57.226578,257.605957 54.956638,251.111633 
	C47.019707,228.404037 44.285938,205.036743 47.360527,181.229965 
	C52.667210,140.139893 71.094704,105.854202 103.154724,79.526939 
	C139.550522,49.639214 181.495071,38.515034 227.945541,45.908947 
	C264.505585,51.728519 295.007050,69.198906 319.442200,96.947495 
	C340.612518,120.988510 353.215546,149.053101 357.070374,180.892761 
	C360.360352,208.066772 356.856232,234.390991 346.250092,259.672455 
	C344.764679,263.213257 345.428162,265.228027 348.991760,266.688843 
	C354.845734,269.088531 360.596710,271.739502 366.392914,274.280396 
	C372.344299,276.889343 372.907196,276.716583 375.266235,270.856506 
	C392.558105,227.901459 394.486115,184.138397 379.440125,140.455322 
	C359.356964,82.147842 319.408020,42.854179 260.515442,21.913492 
M309.533569,136.010361 
	C328.602692,169.240707 332.251068,204.060440 320.309784,240.490356 
	C319.082458,244.234634 315.929413,248.979202 317.191956,251.485275 
	C318.689941,254.458755 324.126831,255.307800 327.632477,257.445221 
	C332.037720,260.131134 334.062225,258.476318 335.786438,254.193130 
	C345.668121,229.645554 348.656982,204.228561 344.691620,178.183777 
	C330.862427,87.352219 237.026794,32.587990 151.187424,65.045143 
	C78.618149,92.484673 40.590366,173.685135 66.097656,246.736755 
	C68.137268,252.578110 68.323029,252.656204 73.728729,250.117767 
	C75.990242,249.055771 78.209496,247.871994 80.545860,247.008453 
	C84.363991,245.597275 85.441864,243.553513 84.021118,239.396378 
	C75.404190,214.183228 75.395561,188.809677 82.911919,163.281570 
	C97.475822,113.817596 145.511230,76.295517 196.712189,75.116158 
	C245.435684,73.993866 282.762268,94.609520 309.533569,136.010361 
M283.580963,121.926155 
	C256.691498,94.732376 224.158279,83.457008 186.322632,88.231850 
	C120.242584,96.571129 75.570129,164.836029 93.653572,229.414749 
	C96.710793,240.332535 96.668259,240.251099 106.773415,234.972580 
	C109.742508,233.421631 110.253387,231.677032 109.264908,228.543304 
	C103.770454,211.124512 103.560394,193.540009 107.910706,175.818710 
	C120.385185,125.002960 173.602066,92.647545 224.234848,104.801445 
	C281.673615,118.589027 315.314636,180.070999 292.445618,236.367950 
	C290.968414,240.004456 291.525574,242.005203 295.252869,243.173325 
	C296.514862,243.568848 297.735626,244.167831 298.889038,244.825150 
	C303.131927,247.243057 305.448486,245.923401 307.044342,241.403992 
	C322.643005,197.229233 315.134369,157.572144 283.580963,121.926155 
M142.386566,140.875107 
	C134.176193,149.307709 134.187012,150.661194 142.529816,159.004517 
	C154.541489,171.016937 166.573608,183.009018 178.556015,195.050568 
	C184.816101,201.341537 188.205490,208.714951 187.975571,217.865143 
	C187.657730,230.514587 187.854385,243.178177 187.913345,255.835327 
	C187.940369,261.637146 190.348633,264.061371 196.051254,264.185181 
	C199.879990,264.268280 203.712082,264.218872 207.542511,264.197815 
	C214.576080,264.159088 216.777390,261.998260 216.800354,254.935043 
	C216.839859,242.777374 217.122726,230.608963 216.712555,218.465027 
	C216.383194,208.713425 220.097092,201.092468 226.817123,194.448090 
	C238.186188,183.206985 249.444580,171.853943 260.749542,160.547974 
	C271.201172,150.095413 271.199371,149.616058 260.669098,139.170471 
	C255.078812,133.625137 252.019180,133.619537 246.423996,139.227325 
	C235.131638,150.545074 223.879120,161.902664 212.572464,173.206100 
	C205.209320,180.567154 199.516556,180.520935 192.057281,173.058945 
	C181.107742,162.105377 170.205643,151.104370 159.266769,140.140106 
	C152.345383,133.202652 149.872131,133.246887 142.386566,140.875107 
M185.373581,149.970490 
	C190.479797,157.585938 197.728958,160.526169 206.542953,158.820892 
	C214.388168,157.303040 219.726562,152.265472 221.699646,144.554657 
	C223.742966,136.569382 221.815308,129.346283 215.363663,123.753624 
	C208.393311,117.711342 197.884521,117.400291 190.407364,122.955284 
	C182.234924,129.026825 180.172134,139.059143 185.373581,149.970490 
z"/>
<path fill="#7EA3D6" opacity="1.000000" stroke="none" 
	d="
M182.531342,0.999999 
	C175.892166,2.348447 168.759613,3.579170 161.680679,5.065267 
	C126.855072,12.376274 96.180862,27.914793 69.728622,51.731262 
	C35.169952,82.846428 13.605395,121.437607 6.468097,167.228302 
	C-2.729020,226.234146 11.357818,279.663788 49.533459,325.980042 
	C79.775436,362.670868 118.659767,385.320160 165.328217,394.492981 
	C171.350037,395.676605 177.461853,396.402283 183.765991,397.670044 
	C123.645775,398.000000 63.291542,398.000000 2.467906,397.534973 
	C1.998998,265.046661 1.999499,133.023331 2.000000,1.000000 
	C62.020893,1.000000 122.041786,1.000000 182.531342,0.999999 
z"/>
<path fill="#7EA3D6" opacity="1.000000" stroke="none" 
	d="
M398.000000,161.531342 
	C396.481262,156.627350 395.006989,151.241684 393.436890,145.884079 
	C376.805603,89.133354 341.844330,47.566956 289.241730,20.884926 
	C267.981903,10.101145 245.183838,4.188219 221.253510,1.317579 
	C279.923553,1.000000 338.847107,1.000000 398.000000,1.000000 
	C398.000000,54.354008 398.000000,107.708344 398.000000,161.531342 
z"/>
<path fill="#7EA3D6" opacity="1.000000" stroke="none" 
	d="
M220.468658,398.000000 
	C223.000519,397.358643 225.973129,396.504364 229.005615,396.106964 
	C308.162140,385.734222 374.242676,327.266144 394.467316,249.605118 
	C395.595825,245.271729 396.439484,240.864151 397.707886,236.245544 
	C398.000000,288.687561 398.000000,341.375122 397.667023,394.438049 
	C389.403076,386.269073 374.858704,389.493896 372.000000,398.000000 
	C321.645782,398.000000 271.291534,398.000000 220.468658,398.000000 
z"/>
<path fill="#FFFFFF" opacity="1.000000" stroke="none" 
	d="
M1.500000,1.000000 
	C1.999499,133.023331 1.998998,265.046661 1.999245,397.534973 
	C1.666660,396.668762 1.042918,395.337769 1.041785,394.006256 
	C0.993225,336.911346 1.000000,279.816376 1.000000,222.721436 
	C1.000000,148.814285 1.000000,74.907143 1.500000,1.000000 
z"/>
<path fill="#E6EDF7" opacity="1.000000" stroke="none" 
	d="
M372.399994,398.000000 
	C374.858704,389.493896 389.403076,386.269073 397.667023,394.906708 
	C397.736694,396.268890 399.085022,398.612244 395.373108,397.675720 
	C388.427307,390.789459 381.457306,391.030579 376.000000,398.000000 
	C374.933319,398.000000 373.866669,398.000000 372.399994,398.000000 
z"/>
<path fill="#8DADDB" opacity="1.000000" stroke="none" 
	d="
M376.468262,398.000000 
	C381.457306,391.030579 388.427307,390.789459 394.873108,397.675720 
	C388.978851,398.000000 382.957703,398.000000 376.468262,398.000000 
z"/>
<path fill="#213F7D" opacity="1.000000" stroke="none" 
	d="
M258.885986,377.966919 
	C180.520157,402.096802 97.885254,374.590210 50.462170,308.680542 
	C47.290554,304.272583 44.626549,299.329620 42.650219,294.274353 
	C40.172653,287.936890 42.057678,282.597107 48.028423,279.286682 
	C60.691200,272.265869 73.329231,265.071625 86.520958,259.161774 
	C110.345619,248.488419 134.164032,251.259216 157.066742,262.293884 
	C166.913620,267.038147 176.141434,273.197021 185.251404,279.308136 
	C196.586624,286.911957 208.346481,292.922485 221.983536,295.484436 
	C233.291336,297.608826 244.265579,301.377686 253.519150,308.706573 
	C262.201752,315.583191 264.158966,323.819489 259.545746,332.977722 
	C256.241760,339.536896 250.822357,342.808960 243.578018,343.260681 
	C232.965393,343.922424 223.129257,340.681915 213.485718,336.936279 
	C198.891937,331.267883 184.521881,325.015320 169.867477,319.515350 
	C164.486160,317.495697 158.596909,316.717468 152.869888,315.812592 
	C151.505676,315.597046 149.862778,317.145386 148.348053,317.882416 
	C149.445923,319.169403 150.383209,320.664612 151.693909,321.675720 
	C152.692719,322.446167 154.182236,322.558594 155.424438,323.038727 
	C169.234512,328.376495 182.939301,334.007172 196.874268,338.995148 
	C209.534119,343.526672 222.298386,347.915985 235.293106,351.309052 
	C243.725967,353.510986 252.250214,351.888977 259.407104,346.150879 
	C274.876099,333.748383 274.345520,311.686646 256.942474,301.547302 
	C246.211136,295.295013 233.522583,292.380005 221.667511,288.091736 
	C217.959656,286.750549 214.104233,285.817261 209.465500,284.445679 
	C210.955673,283.130768 211.702881,282.389893 212.530487,281.753601 
	C222.568283,274.036194 232.552048,266.245697 242.706177,258.684113 
	C245.610580,256.521271 248.861603,254.622559 252.234451,253.342621 
	C256.172577,251.848175 260.772339,252.076675 263.123108,255.777557 
	C264.737183,258.318634 264.272369,262.180237 264.788605,265.816498 
	C265.782074,265.232239 267.927826,264.065735 269.973572,262.744415 
	C272.908966,260.848480 275.532410,257.969055 278.723785,257.092804 
	C282.998627,255.918991 287.957367,255.172089 292.138153,256.204010 
	C298.382111,257.745148 300.045288,263.921600 296.515717,269.382599 
	C294.263519,272.867249 291.653687,276.120758 289.620819,280.181091 
	C290.847168,279.450714 292.187775,278.859467 293.278351,277.963745 
	C296.494781,275.322021 299.257782,271.866943 302.860138,270.023804 
	C307.152130,267.827820 312.154999,265.710693 316.807007,265.799652 
	C326.717010,265.989197 331.064148,275.303650 325.719727,283.684021 
	C323.369324,287.369537 320.558441,290.761414 318.735077,295.143250 
	C321.097717,293.347504 323.473999,291.569366 325.819733,289.751801 
	C329.110596,287.201935 332.082458,284.024048 335.735809,282.216187 
	C339.789642,280.210175 344.384888,278.806793 348.875183,278.300293 
	C354.305054,277.687775 359.138580,279.955597 361.913452,284.972504 
	C364.607361,289.843140 363.496460,294.585358 360.609589,299.120483 
	C342.301147,327.882202 318.173798,350.377716 287.792999,365.862762 
	C278.628845,370.533722 268.792267,373.885529 258.885986,377.966919 
z"/>
<path fill="#F8B434" opacity="1.000000" stroke="none" 
	d="
M260.894714,22.023182 
	C319.408020,42.854179 359.356964,82.147842 379.440125,140.455322 
	C394.486115,184.138397 392.558105,227.901459 375.266235,270.856506 
	C372.907196,276.716583 372.344299,276.889343 366.392914,274.280396 
	C360.596710,271.739502 354.845734,269.088531 348.991760,266.688843 
	C345.428162,265.228027 344.764679,263.213257 346.250092,259.672455 
	C356.856232,234.390991 360.360352,208.066772 357.070374,180.892761 
	C353.215546,149.053101 340.612518,120.988510 319.442200,96.947495 
	C295.007050,69.198906 264.505585,51.728519 227.945541,45.908947 
	C181.495071,38.515034 139.550522,49.639214 103.154724,79.526939 
	C71.094704,105.854202 52.667210,140.139893 47.360527,181.229965 
	C44.285938,205.036743 47.019707,228.404037 54.956638,251.111633 
	C57.226578,257.605957 57.221012,257.622101 51.045265,260.506195 
	C45.461594,263.113800 39.806664,265.576385 34.291916,268.321381 
	C30.597462,270.160339 28.542110,269.359650 27.087034,265.426422 
	C21.450174,250.189331 17.630081,234.523117 16.186424,218.359192 
	C11.632499,167.371124 25.028030,121.515862 57.332485,81.818504 
	C89.136368,42.736267 130.520691,20.064533 180.628937,13.963122 
	C207.777252,10.657417 234.481567,13.284980 260.894714,22.023182 
z"/>
<path fill="#F8B436" opacity="1.000000" stroke="none" 
	d="
M309.345581,135.697174 
	C282.762268,94.609520 245.435684,73.993866 196.712189,75.116158 
	C145.511230,76.295517 97.475822,113.817596 82.911919,163.281570 
	C75.395561,188.809677 75.404190,214.183228 84.021118,239.396378 
	C85.441864,243.553513 84.363991,245.597275 80.545860,247.008453 
	C78.209496,247.871994 75.990242,249.055771 73.728729,250.117767 
	C68.323029,252.656204 68.137268,252.578110 66.097656,246.736755 
	C40.590366,173.685135 78.618149,92.484673 151.187424,65.045143 
	C237.026794,32.587990 330.862427,87.352219 344.691620,178.183777 
	C348.656982,204.228561 345.668121,229.645554 335.786438,254.193130 
	C334.062225,258.476318 332.037720,260.131134 327.632477,257.445221 
	C324.126831,255.307800 318.689941,254.458755 317.191956,251.485275 
	C315.929413,248.979202 319.082458,244.234634 320.309784,240.490356 
	C332.251068,204.060440 328.602692,169.240707 309.345581,135.697174 
z"/>
<path fill="#F8B537" opacity="1.000000" stroke="none" 
	d="
M283.826752,122.180534 
	C315.134369,157.572144 322.643005,197.229233 307.044342,241.403992 
	C305.448486,245.923401 303.131927,247.243057 298.889038,244.825150 
	C297.735626,244.167831 296.514862,243.568848 295.252869,243.173325 
	C291.525574,242.005203 290.968414,240.004456 292.445618,236.367950 
	C315.314636,180.070999 281.673615,118.589027 224.234848,104.801445 
	C173.602066,92.647545 120.385185,125.002960 107.910706,175.818710 
	C103.560394,193.540009 103.770454,211.124512 109.264908,228.543304 
	C110.253387,231.677032 109.742508,233.421631 106.773415,234.972580 
	C96.668259,240.251099 96.710793,240.332535 93.653572,229.414749 
	C75.570129,164.836029 120.242584,96.571129 186.322632,88.231850 
	C224.158279,83.457008 256.691498,94.732376 283.826752,122.180534 
z"/>
<path fill="#E73F33" opacity="1.000000" stroke="none" 
	d="
M142.628967,140.608582 
	C149.872131,133.246887 152.345383,133.202652 159.266769,140.140106 
	C170.205643,151.104370 181.107742,162.105377 192.057281,173.058945 
	C199.516556,180.520935 205.209320,180.567154 212.572464,173.206100 
	C223.879120,161.902664 235.131638,150.545074 246.423996,139.227325 
	C252.019180,133.619537 255.078812,133.625137 260.669098,139.170471 
	C271.199371,149.616058 271.201172,150.095413 260.749542,160.547974 
	C249.444580,171.853943 238.186188,183.206985 226.817123,194.448090 
	C220.097092,201.092468 216.383194,208.713425 216.712555,218.465027 
	C217.122726,230.608963 216.839859,242.777374 216.800354,254.935043 
	C216.777390,261.998260 214.576080,264.159088 207.542511,264.197815 
	C203.712082,264.218872 199.879990,264.268280 196.051254,264.185181 
	C190.348633,264.061371 187.940369,261.637146 187.913345,255.835327 
	C187.854385,243.178177 187.657730,230.514587 187.975571,217.865143 
	C188.205490,208.714951 184.816101,201.341537 178.556015,195.050568 
	C166.573608,183.009018 154.541489,171.016937 142.529816,159.004517 
	C134.187012,150.661194 134.176193,149.307709 142.628967,140.608582 
z"/>
<path fill="#E73F33" opacity="1.000000" stroke="none" 
	d="
M185.178955,149.650314 
	C180.172134,139.059143 182.234924,129.026825 190.407364,122.955284 
	C197.884521,117.400291 208.393311,117.711342 215.363663,123.753624 
	C221.815308,129.346283 223.742966,136.569382 221.699646,144.554657 
	C219.726562,152.265472 214.388168,157.303040 206.542953,158.820892 
	C197.728958,160.526169 190.479797,157.585938 185.178955,149.650314 
z"/>
</svg>